<svg width="188" height="28" viewBox="0 0 188 28" fill="none" xmlns="http://www.w3.org/2000/svg">
<g clip-path="url(#clip0_1_34)">
<path d="M46.5347 -1.57356e-05H3.72278V11.7888H46.5347V-1.57356e-05Z" fill="white"/>
<path d="M24.8185 16.132H0V21.7162H24.8185V16.132Z" fill="white"/>
<path d="M31.6436 11.1683H46.5346V23.5775H31.6436V11.1683Z" fill="white"/>
<path d="M17.3729 21.0957H24.8185V27.3003H17.3729V21.0957Z" fill="white"/>
<path d="M54.4323 10.5048V2.66389H57.1013C57.7213 2.66389 58.2279 2.77492 58.6212 2.99699C59.0172 3.21649 59.3105 3.51383 59.5008 3.88905C59.691 4.26424 59.7862 4.68283 59.7862 5.14482C59.7862 5.60681 59.691 6.02667 59.5008 6.40443C59.313 6.78217 59.0223 7.08335 58.629 7.30796C58.2354 7.53003 57.7316 7.64105 57.1169 7.64105H55.2038V6.79878H57.086C57.5105 6.79878 57.8511 6.72602 58.1082 6.58053C58.3652 6.43506 58.5518 6.23851 58.6674 5.99093C58.7858 5.7408 58.8448 5.45875 58.8448 5.14482C58.8448 4.83086 58.7858 4.55011 58.6674 4.30252C58.5518 4.05494 58.3641 3.86096 58.1043 3.72058C57.8447 3.57766 57.5002 3.50617 57.0707 3.50617H55.3887V10.5048H54.4323ZM67.9925 6.58437C67.9925 7.41135 67.8421 8.12601 67.5413 8.72838C67.2405 9.33073 66.8277 9.79526 66.303 10.122C65.7786 10.4487 65.1792 10.612 64.5055 10.612C63.8317 10.612 63.2326 10.4487 62.7082 10.122C62.1834 9.79526 61.7707 9.33073 61.4699 8.72838C61.1691 8.12601 61.0187 7.41135 61.0187 6.58437C61.0187 5.75739 61.1691 5.04273 61.4699 4.44036C61.7707 3.83799 62.1834 3.37345 62.7082 3.04675C63.2326 2.72005 63.8317 2.55669 64.5055 2.55669C65.1792 2.55669 65.7786 2.72005 66.303 3.04675C66.8277 3.37345 67.2405 3.83799 67.5413 4.44036C67.8421 5.04273 67.9925 5.75739 67.9925 6.58437ZM67.0667 6.58437C67.0667 5.90543 66.9525 5.33241 66.7236 4.86533C66.4971 4.39826 66.1899 4.04474 65.8017 3.80481C65.4159 3.56489 64.9839 3.44491 64.5055 3.44491C64.0272 3.44491 63.5939 3.56489 63.2056 3.80481C62.8199 4.04474 62.5127 4.39826 62.2837 4.86533C62.0576 5.33241 61.9442 5.90543 61.9442 6.58437C61.9442 7.26329 62.0576 7.8363 62.2837 8.30341C62.5127 8.77049 62.8199 9.124 63.2056 9.36393C63.5939 9.60385 64.0272 9.7238 64.5055 9.7238C64.9839 9.7238 65.4159 9.60385 65.8017 9.36393C66.1899 9.124 66.4971 8.77049 66.7236 8.30341C66.9525 7.8363 67.0667 7.26329 67.0667 6.58437ZM71.0362 10.5048L68.876 2.66389H69.848L71.4988 9.04997H71.5759L73.2579 2.66389H74.338L76.0197 9.04997H76.0968L77.7479 2.66389H78.7199L76.5597 10.5048H75.5721L73.8289 4.25658H73.767L72.0235 10.5048H71.0362ZM79.9117 10.5048V2.66389H84.6794V3.50617H80.8684V6.15555H84.4326V6.99785H80.8684V9.66254H84.7412V10.5048H79.9117ZM86.4037 10.5048V2.66389H89.0727C89.6899 2.66389 90.1966 2.76854 90.5926 2.97783C90.9887 3.18459 91.2819 3.46918 91.4722 3.8316C91.6624 4.19405 91.7577 4.60625 91.7577 5.06824C91.7577 5.53024 91.6624 5.9399 91.4722 6.29723C91.2819 6.65456 90.9901 6.93532 90.5965 7.1395C90.203 7.34116 89.7002 7.44198 89.0883 7.44198H86.9281V6.58437H89.0574C89.4791 6.58437 89.8186 6.52311 90.0757 6.40059C90.3355 6.27807 90.5233 6.10452 90.6388 5.87991C90.7572 5.65276 90.8163 5.3822 90.8163 5.06824C90.8163 4.75431 90.7572 4.47992 90.6388 4.24511C90.5208 4.01027 90.3316 3.82906 90.0718 3.70145C89.8122 3.57127 89.4688 3.50617 89.0421 3.50617H87.3601V10.5048H86.4037ZM90.1222 6.98253L92.0662 10.5048H90.9552L89.0421 6.98253H90.1222ZM93.3516 10.5048V2.66389H98.1193V3.50617H94.3083V6.15555H97.8722V6.99785H94.3083V9.66254H98.1808V10.5048H93.3516ZM102.281 10.5048H99.8436V2.66389H102.389C103.156 2.66389 103.811 2.82087 104.356 3.1348C104.902 3.44621 105.32 3.89413 105.61 4.47865C105.901 5.06059 106.046 5.75739 106.046 6.56906C106.046 7.38581 105.899 8.089 105.606 8.6786C105.313 9.26565 104.886 9.71742 104.326 10.0339C103.765 10.3479 103.084 10.5048 102.281 10.5048ZM100.8 9.66254H102.22C102.873 9.66254 103.414 9.53748 103.843 9.28735C104.273 9.03723 104.593 8.68117 104.804 8.21917C105.015 7.75718 105.12 7.20714 105.12 6.56906C105.12 5.93606 105.016 5.39113 104.808 4.93425C104.6 4.4748 104.288 4.12259 103.874 3.87755C103.46 3.62996 102.945 3.50617 102.328 3.50617H100.8V9.66254ZM110.706 10.5048V2.66389H113.468C114.018 2.66389 114.472 2.75833 114.829 2.9472C115.187 3.13353 115.453 3.38495 115.628 3.70145C115.802 4.01538 115.89 4.36378 115.89 4.74666C115.89 5.08356 115.829 5.36177 115.709 5.58127C115.59 5.80079 115.433 5.97434 115.238 6.10198C115.045 6.22958 114.836 6.32402 114.609 6.38528V6.46185C114.851 6.47717 115.094 6.5614 115.338 6.71455C115.583 6.86767 115.787 7.08719 115.952 7.37306C116.116 7.65893 116.198 8.00861 116.198 8.42208C116.198 8.81516 116.109 9.16865 115.929 9.4826C115.748 9.79656 115.464 10.0454 115.076 10.2292C114.688 10.4129 114.183 10.5048 113.56 10.5048H110.706ZM111.662 9.66254H113.56C114.185 9.66254 114.628 9.54259 114.891 9.30267C115.156 9.06017 115.288 8.76667 115.288 8.42208C115.288 8.15664 115.22 7.9116 115.084 7.68699C114.947 7.45984 114.753 7.2786 114.501 7.14334C114.249 7.00551 113.951 6.93659 113.606 6.93659H111.662V9.66254ZM111.662 6.10963H113.437C113.725 6.10963 113.985 6.05346 114.216 5.94117C114.45 5.82885 114.635 5.67061 114.771 5.46641C114.91 5.26222 114.98 5.0223 114.98 4.74666C114.98 4.40207 114.859 4.10981 114.617 3.86989C114.375 3.62742 113.992 3.50617 113.468 3.50617H111.662V6.10963ZM117.091 2.66389H118.187L120.378 6.32402H120.47L122.662 2.66389H123.757L120.903 7.27352V10.5048H119.946V7.27352L117.091 2.66389ZM54.1621 23.4977V15.6567H57.279C57.8781 15.6567 58.3886 15.7703 58.8103 15.9975C59.232 16.2221 59.5534 16.5348 59.7745 16.9355C59.9982 17.3337 60.1102 17.7931 60.1102 18.3138C60.1102 18.8345 59.9971 19.2939 59.7706 19.6921C59.5445 20.0902 59.2167 20.4004 58.7872 20.6224C58.3602 20.8445 57.8433 20.9555 57.2364 20.9555H55.25V19.627H56.9665C57.2879 19.627 57.5528 19.5721 57.7611 19.4624C57.972 19.35 58.1288 19.1956 58.2315 18.9991C58.3371 18.8 58.3897 18.5716 58.3897 18.3138C58.3897 18.0534 58.3371 17.8263 58.2315 17.6323C58.1288 17.4357 57.972 17.2839 57.7611 17.1767C57.5503 17.0669 57.2826 17.0121 56.9587 17.0121H55.8324V23.4977H54.1621ZM61.195 23.4977V15.6567H64.3119C64.911 15.6567 65.4215 15.7703 65.8432 15.9975C66.2649 16.2221 66.5863 16.5348 66.8074 16.9355C67.0311 17.3337 67.143 17.7931 67.143 18.3138C67.143 18.8345 67.0299 19.2939 66.8035 19.6921C66.5773 20.0902 66.2495 20.4004 65.8201 20.6224C65.3931 20.8445 64.8762 20.9555 64.2693 20.9555H62.2829V19.627H63.9994C64.3208 19.627 64.5857 19.5721 64.794 19.4624C65.0048 19.35 65.1616 19.1956 65.2644 18.9991C65.37 18.8 65.4226 18.5716 65.4226 18.3138C65.4226 18.0534 65.37 17.8263 65.2644 17.6323C65.1616 17.4357 65.0048 17.2839 64.794 17.1767C64.5832 17.0669 64.3155 17.0121 63.9916 17.0121H62.8653V23.4977H61.195ZM72.5134 17.9118C72.4825 17.6029 72.3502 17.363 72.116 17.192C71.882 17.021 71.5645 16.9355 71.1634 16.9355C70.8908 16.9355 70.6607 16.9738 70.473 17.0504C70.2853 17.1244 70.141 17.2277 70.0407 17.3605C69.9432 17.4932 69.8942 17.6438 69.8942 17.8122C69.8892 17.9526 69.9187 18.0751 69.9831 18.1798C70.0499 18.2844 70.141 18.375 70.2569 18.4516C70.3724 18.5256 70.5064 18.5907 70.6579 18.6469C70.8097 18.7005 70.9718 18.7464 71.1439 18.7847L71.8539 18.9531C72.1984 19.0297 72.5145 19.1318 72.8028 19.2594C73.0908 19.3871 73.3401 19.544 73.5509 19.7304C73.7617 19.9167 73.9252 20.1362 74.0408 20.3889C74.1592 20.6416 74.2196 20.9313 74.2221 21.258C74.2196 21.7378 74.0962 22.1538 73.852 22.5061C73.6102 22.8558 73.2604 23.1276 72.8028 23.3216C72.3474 23.513 71.7985 23.6087 71.1556 23.6087C70.5178 23.6087 69.9625 23.5117 69.4893 23.3177C69.0186 23.1238 68.6509 22.8366 68.386 22.4563C68.1237 22.0734 67.9861 21.6 67.9733 21.0359H69.5895C69.6076 21.2988 69.6834 21.5183 69.8171 21.6944C69.9533 21.868 70.1346 21.9994 70.361 22.0888C70.59 22.1755 70.8484 22.2189 71.1364 22.2189C71.4191 22.2189 71.6648 22.1781 71.8731 22.0964C72.0839 22.0148 72.2471 21.9012 72.363 21.7557C72.4786 21.6102 72.5365 21.443 72.5365 21.2541C72.5365 21.078 72.4839 20.93 72.3783 20.81C72.2756 20.69 72.1238 20.5879 71.9232 20.5037C71.7252 20.4195 71.4821 20.3429 71.1941 20.274L70.334 20.0596C69.6681 19.8988 69.1419 19.6474 68.7565 19.3054C68.3707 18.9634 68.1791 18.5027 68.1816 17.9233C68.1791 17.4485 68.3064 17.0337 68.5635 16.679C68.8233 16.3242 69.1793 16.0473 69.6319 15.8482C70.0845 15.6491 70.5989 15.5495 71.1749 15.5495C71.7611 15.5495 72.2731 15.6491 72.71 15.8482C73.1498 16.0473 73.4918 16.3242 73.7361 16.679C73.9804 17.0337 74.1065 17.4447 74.1141 17.9118H72.5134ZM79.0062 18.9302V20.2242H75.4036V18.9302H79.0062ZM80.4373 23.4977V15.6567H82.1075V22.1309H85.4943V23.4977H80.4373ZM88.1634 23.4977H86.3736L89.1009 15.6567H91.2533L93.9766 23.4977H92.1866L90.208 17.4485H90.1461L88.1634 23.4977ZM88.0517 20.4157H92.2793V21.7097H88.0517V20.4157ZM100.242 23.4977H97.4414V15.6567H100.265C101.06 15.6567 101.744 15.8137 102.317 16.1276C102.89 16.4391 103.331 16.887 103.64 17.4715C103.951 18.056 104.107 18.7553 104.107 19.5696C104.107 20.3863 103.951 21.0882 103.64 21.6753C103.331 22.2623 102.888 22.7128 102.309 23.0268C101.733 23.3407 101.044 23.4977 100.242 23.4977ZM99.1116 22.0773H100.172C100.666 22.0773 101.081 21.9905 101.418 21.8169C101.758 21.6408 102.012 21.369 102.182 21.0015C102.354 20.6313 102.441 20.154 102.441 19.5696C102.441 18.9902 102.354 18.5167 102.182 18.1491C102.012 17.7816 101.759 17.511 101.422 17.3375C101.085 17.1639 100.67 17.0771 100.176 17.0771H99.1116V22.0773ZM105.313 23.4977V17.617H106.956V23.4977H105.313ZM106.139 16.8589C105.894 16.8589 105.685 16.7785 105.51 16.6177C105.338 16.4544 105.251 16.2591 105.251 16.0319C105.251 15.8073 105.338 15.6146 105.51 15.4538C105.685 15.2905 105.894 15.2088 106.139 15.2088C106.383 15.2088 106.591 15.2905 106.763 15.4538C106.938 15.6146 107.026 15.8073 107.026 16.0319C107.026 16.2591 106.938 16.4544 106.763 16.6177C106.591 16.7785 106.383 16.8589 106.139 16.8589ZM110.942 25.8255C110.41 25.8255 109.953 25.7527 109.573 25.6072C109.195 25.4643 108.894 25.269 108.67 25.0215C108.446 24.7739 108.301 24.4957 108.234 24.1868L109.754 23.9839C109.8 24.1013 109.874 24.2111 109.974 24.3132C110.074 24.4153 110.206 24.4969 110.371 24.5582C110.538 24.622 110.741 24.6539 110.98 24.6539C111.338 24.6539 111.632 24.5671 111.864 24.3936C112.098 24.2226 112.215 23.9354 112.215 23.5321V22.4563H112.145C112.073 22.6197 111.966 22.7741 111.822 22.9196C111.677 23.065 111.492 23.1837 111.266 23.2756C111.04 23.3675 110.77 23.4134 110.456 23.4134C110.011 23.4134 109.606 23.3114 109.241 23.1072C108.878 22.9004 108.589 22.5852 108.373 22.1615C108.16 21.7352 108.053 21.1967 108.053 20.5458C108.053 19.8797 108.162 19.3232 108.381 18.8766C108.599 18.4299 108.89 18.0956 109.253 17.8735C109.618 17.6514 110.018 17.5404 110.452 17.5404C110.784 17.5404 111.061 17.5966 111.285 17.7089C111.509 17.8186 111.689 17.9565 111.825 18.1223C111.964 18.2857 112.071 18.4465 112.145 18.6047H112.207V17.617H113.839V23.5551C113.839 24.0554 113.715 24.474 113.468 24.8109C113.222 25.1478 112.88 25.4005 112.442 25.5689C112.008 25.74 111.508 25.8255 110.942 25.8255ZM110.977 22.1883C111.241 22.1883 111.465 22.1232 111.648 21.9931C111.833 21.8603 111.974 21.6714 112.072 21.4264C112.172 21.1788 112.223 20.8827 112.223 20.5382C112.223 20.1936 112.174 19.895 112.076 19.6423C111.978 19.387 111.837 19.1893 111.652 19.0489C111.466 18.9085 111.241 18.8383 110.977 18.8383C110.707 18.8383 110.479 18.911 110.294 19.0565C110.109 19.1995 109.969 19.3985 109.874 19.6538C109.778 19.909 109.731 20.2038 109.731 20.5382C109.731 20.8777 109.778 21.1712 109.874 21.4188C109.971 21.6638 110.111 21.8539 110.294 21.9892C110.479 22.1219 110.707 22.1883 110.977 22.1883ZM115.147 23.4977V17.617H116.79V23.4977H115.147ZM115.972 16.8589C115.728 16.8589 115.518 16.7785 115.343 16.6177C115.171 16.4544 115.085 16.2591 115.085 16.0319C115.085 15.8073 115.171 15.6146 115.343 15.4538C115.518 15.2905 115.728 15.2088 115.972 15.2088C116.216 15.2088 116.424 15.2905 116.597 15.4538C116.772 15.6146 116.859 15.8073 116.859 16.0319C116.859 16.2591 116.772 16.4544 116.597 16.6177C116.424 16.7785 116.216 16.8589 115.972 16.8589ZM121.257 17.617V18.8421H117.689V17.617H121.257ZM118.499 16.2081H120.143V21.6906C120.143 21.8412 120.166 21.9586 120.212 22.0428C120.258 22.1245 120.323 22.1819 120.405 22.2151C120.49 22.2483 120.587 22.2649 120.698 22.2649C120.775 22.2649 120.852 22.2585 120.929 22.2457C121.007 22.2304 121.066 22.2189 121.107 22.2113L121.365 23.4249C121.283 23.4505 121.168 23.4798 121.018 23.513C120.869 23.5487 120.688 23.5704 120.474 23.5781C120.078 23.5934 119.731 23.5411 119.433 23.4211C119.137 23.3012 118.907 23.1148 118.742 22.8621C118.578 22.6094 118.497 22.2904 118.499 21.905V16.2081ZM124.017 23.6087C123.639 23.6087 123.302 23.5436 123.007 23.4134C122.711 23.2807 122.477 23.0855 122.305 22.8277C122.135 22.5673 122.05 22.2432 122.05 21.8552C122.05 21.5285 122.111 21.2541 122.231 21.0321C122.352 20.81 122.517 20.6313 122.725 20.4961C122.933 20.3608 123.17 20.2587 123.435 20.1898C123.702 20.1209 123.983 20.0724 124.276 20.0443C124.62 20.0086 124.898 19.9754 125.109 19.9447C125.32 19.9116 125.473 19.8631 125.568 19.7993C125.663 19.7355 125.711 19.641 125.711 19.516V19.493C125.711 19.2505 125.634 19.0629 125.479 18.9302C125.327 18.7975 125.112 18.7311 124.831 18.7311C124.535 18.7311 124.3 18.7962 124.125 18.9264C123.95 19.054 123.835 19.2148 123.778 19.4088L122.258 19.2862C122.336 18.9289 122.487 18.6201 122.714 18.3597C122.94 18.0968 123.232 17.8952 123.589 17.7548C123.949 17.6119 124.366 17.5404 124.839 17.5404C125.168 17.5404 125.483 17.5787 125.784 17.6553C126.087 17.7318 126.356 17.8505 126.59 18.0113C126.827 18.1721 127.013 18.3789 127.15 18.6316C127.286 18.8817 127.354 19.1816 127.354 19.5313V23.4977H125.796V22.6822H125.749C125.654 22.866 125.527 23.028 125.367 23.1684C125.208 23.3062 125.016 23.4147 124.793 23.4939C124.569 23.5704 124.311 23.6087 124.017 23.6087ZM124.488 22.4831C124.73 22.4831 124.943 22.4359 125.128 22.3415C125.313 22.2445 125.459 22.1143 125.564 21.9509C125.67 21.7876 125.722 21.6025 125.722 21.3958V20.7717C125.671 20.8049 125.6 20.8355 125.51 20.8636C125.423 20.8891 125.324 20.9134 125.213 20.9364C125.102 20.9568 124.992 20.9759 124.881 20.9938C124.771 21.0091 124.67 21.0232 124.58 21.0359C124.387 21.064 124.219 21.1087 124.075 21.1699C123.931 21.2311 123.819 21.3141 123.74 21.4188C123.66 21.5209 123.62 21.6485 123.62 21.8016C123.62 22.0237 123.701 22.1934 123.863 22.3108C124.028 22.4257 124.236 22.4831 124.488 22.4831ZM130.272 15.6567V23.4977H128.629V15.6567H130.272ZM133.832 17.0235V15.6567H140.32V17.0235H137.902V23.4977H136.251V17.0235H133.832ZM143.199 23.6125C142.589 23.6125 142.065 23.49 141.625 23.245C141.188 22.9974 140.851 22.6477 140.615 22.196C140.378 21.7416 140.259 21.2044 140.259 20.5841C140.259 19.9792 140.378 19.4483 140.615 18.9914C140.851 18.5346 141.184 18.1785 141.614 17.9233C142.046 17.668 142.552 17.5404 143.133 17.5404C143.524 17.5404 143.888 17.6029 144.225 17.728C144.564 17.8505 144.86 18.0356 145.112 18.2832C145.367 18.5307 145.565 18.8421 145.706 19.2173C145.848 19.59 145.918 20.0264 145.918 20.5267V20.9746H140.915V19.9639H144.371C144.371 19.7291 144.32 19.5211 144.217 19.3398C144.114 19.1586 143.972 19.0169 143.789 18.9149C143.609 18.8102 143.399 18.7579 143.16 18.7579C142.911 18.7579 142.69 18.8153 142.497 18.9302C142.307 19.0425 142.157 19.1943 142.049 19.3858C141.941 19.5746 141.886 19.7852 141.883 20.0175V20.9785C141.883 21.2694 141.937 21.5209 142.046 21.7327C142.156 21.9445 142.312 22.1079 142.512 22.2228C142.713 22.3376 142.951 22.3951 143.226 22.3951C143.408 22.3951 143.575 22.3695 143.727 22.3185C143.879 22.2674 144.009 22.1908 144.117 22.0888C144.225 21.9867 144.307 21.8616 144.364 21.7136L145.884 21.8131C145.806 22.1755 145.648 22.492 145.409 22.7626C145.172 23.0306 144.866 23.2399 144.491 23.3905C144.118 23.5385 143.687 23.6125 143.199 23.6125ZM148.68 23.6087C148.302 23.6087 147.965 23.5436 147.669 23.4134C147.374 23.2807 147.14 23.0855 146.968 22.8277C146.798 22.5673 146.713 22.2432 146.713 21.8552C146.713 21.5285 146.773 21.2541 146.894 21.0321C147.015 20.81 147.179 20.6313 147.388 20.4961C147.596 20.3608 147.833 20.2587 148.097 20.1898C148.365 20.1209 148.645 20.0724 148.939 20.0443C149.283 20.0086 149.561 19.9754 149.772 19.9447C149.983 19.9116 150.136 19.8631 150.231 19.7993C150.326 19.7355 150.374 19.641 150.374 19.516V19.493C150.374 19.2505 150.296 19.0629 150.142 18.9302C149.99 18.7975 149.774 18.7311 149.494 18.7311C149.198 18.7311 148.963 18.7962 148.788 18.9264C148.613 19.054 148.497 19.2148 148.441 19.4088L146.921 19.2862C146.998 18.9289 147.15 18.6201 147.376 18.3597C147.603 18.0968 147.894 17.8952 148.252 17.7548C148.612 17.6119 149.029 17.5404 149.502 17.5404C149.831 17.5404 150.146 17.5787 150.447 17.6553C150.75 17.7318 151.019 17.8505 151.253 18.0113C151.49 18.1721 151.676 18.3789 151.812 18.6316C151.949 18.8817 152.017 19.1816 152.017 19.5313V23.4977H150.458V22.6822H150.412C150.317 22.866 150.189 23.028 150.03 23.1684C149.871 23.3062 149.679 23.4147 149.455 23.4939C149.232 23.5704 148.973 23.6087 148.68 23.6087ZM149.151 22.4831C149.392 22.4831 149.606 22.4359 149.791 22.3415C149.976 22.2445 150.121 22.1143 150.227 21.9509C150.332 21.7876 150.385 21.6025 150.385 21.3958V20.7717C150.334 20.8049 150.263 20.8355 150.173 20.8636C150.086 20.8891 149.986 20.9134 149.876 20.9364C149.765 20.9568 149.655 20.9759 149.544 20.9938C149.434 21.0091 149.333 21.0232 149.243 21.0359C149.05 21.064 148.882 21.1087 148.738 21.1699C148.594 21.2311 148.482 21.3141 148.402 21.4188C148.323 21.5209 148.283 21.6485 148.283 21.8016C148.283 22.0237 148.364 22.1934 148.526 22.3108C148.69 22.4257 148.899 22.4831 149.151 22.4831ZM153.292 23.4977V17.617H154.858V18.6545H154.927C155.05 18.3099 155.256 18.0381 155.544 17.839C155.832 17.64 156.177 17.5404 156.578 17.5404C156.984 17.5404 157.33 17.6412 157.616 17.8429C157.901 18.042 158.091 18.3125 158.187 18.6545H158.248C158.369 18.3176 158.588 18.0483 158.904 17.8467C159.223 17.6425 159.599 17.5404 160.034 17.5404C160.587 17.5404 161.036 17.7152 161.38 18.0649C161.727 18.412 161.901 18.9047 161.901 19.5427V23.4977H160.262V19.8644C160.262 19.5377 160.174 19.2926 159.999 19.1293C159.825 18.9659 159.606 18.8842 159.344 18.8842C159.045 18.8842 158.813 18.9787 158.646 19.1676C158.478 19.3539 158.395 19.6002 158.395 19.9065V23.4977H156.802V19.8299C156.802 19.5415 156.718 19.3118 156.551 19.1407C156.386 18.9697 156.169 18.8842 155.899 18.8842C155.716 18.8842 155.552 18.9302 155.405 19.0221C155.261 19.1114 155.147 19.2377 155.062 19.4011C154.977 19.5619 154.935 19.7508 154.935 19.9677V23.4977H153.292ZM166.64 15.2892L164.094 24.6769H162.678L165.224 15.2892H166.64ZM167.462 23.4977V15.6567H172.785V17.0235H169.133V18.8919H172.512V20.2587H169.133V22.1309H172.801V23.4977H167.462ZM173.813 17.0235V15.6567H180.3V17.0235H177.882V23.4977H176.231V17.0235H173.813ZM185.654 17.9118C185.624 17.6029 185.491 17.363 185.257 17.192C185.023 17.021 184.706 16.9355 184.304 16.9355C184.032 16.9355 183.802 16.9738 183.614 17.0504C183.426 17.1244 183.282 17.2277 183.182 17.3605C183.084 17.4932 183.035 17.6438 183.035 17.8122C183.03 17.9526 183.06 18.0751 183.124 18.1798C183.191 18.2844 183.282 18.375 183.398 18.4516C183.514 18.5256 183.647 18.5907 183.799 18.6469C183.951 18.7005 184.113 18.7464 184.285 18.7847L184.995 18.9531C185.339 19.0297 185.656 19.1318 185.944 19.2594C186.232 19.3871 186.481 19.544 186.692 19.7304C186.903 19.9167 187.066 20.1362 187.182 20.3889C187.3 20.6416 187.361 20.9313 187.363 21.258C187.361 21.7378 187.237 22.1538 186.993 22.5061C186.751 22.8558 186.402 23.1276 185.944 23.3216C185.489 23.513 184.94 23.6087 184.297 23.6087C183.659 23.6087 183.103 23.5117 182.63 23.3177C182.16 23.1238 181.792 22.8366 181.527 22.4563C181.265 22.0734 181.127 21.6 181.114 21.0359H182.731C182.749 21.2988 182.825 21.5183 182.958 21.6944C183.094 21.868 183.276 21.9994 183.502 22.0888C183.731 22.1755 183.989 22.2189 184.277 22.2189C184.56 22.2189 184.806 22.1781 185.014 22.0964C185.225 22.0148 185.388 21.9012 185.504 21.7557C185.62 21.6102 185.678 21.443 185.678 21.2541C185.678 21.078 185.625 20.93 185.519 20.81C185.416 20.69 185.265 20.5879 185.064 20.5037C184.866 20.4195 184.623 20.3429 184.335 20.274L183.475 20.0596C182.809 19.8988 182.283 19.6474 181.897 19.3054C181.512 18.9634 181.32 18.5027 181.323 17.9233C181.32 17.4485 181.447 17.0337 181.705 16.679C181.964 16.3242 182.32 16.0473 182.773 15.8482C183.226 15.6491 183.74 15.5495 184.316 15.5495C184.902 15.5495 185.414 15.6491 185.851 15.8482C186.291 16.0473 186.633 16.3242 186.877 16.679C187.122 17.0337 187.247 17.4447 187.255 17.9118H185.654Z" fill="white"/>
</g>
<defs>
<clipPath id="clip0_1_34">
<rect width="188" height="27.9208" fill="white"/>
</clipPath>
</defs>
</svg>
